HIERARCHY
ROOT SpineBase
{
  OFFSET 0.000000 0.000000 0.000000
  CHANNELS 6 Xposition Yposition Zposition Zrotation Xrotation Yrotation
  JOINT SpineMid
  {
    OFFSET -0.000000 29.635459 0.000000
    CHANNELS 3 Zrotation Xrotation Yrotation
    JOINT SpineShoulder
    {
      OFFSET -0.063134 21.974117 -0.826068
      CHANNELS 3 Zrotation Xrotation Yrotation
      JOINT Neck
      {
        OFFSET -0.037111 7.259691 -0.608372
        CHANNELS 3 Zrotation Xrotation Yrotation
        JOINT Head
        {
          OFFSET -1.430661 14.183830 -5.041622
          CHANNELS 3 Zrotation Xrotation Yrotation
          End Site
          {
            OFFSET 0 0 0
          }
        }
      }
      JOINT ShoulderLeft
      {
        OFFSET -17.898535 -3.960037 2.277414
        CHANNELS 3 Zrotation Xrotation Yrotation
        JOINT ElbowLeft
        {
          OFFSET -2.931054 -25.551240 1.955620
          CHANNELS 3 Zrotation Xrotation Yrotation
          JOINT WristLeft
          {
            OFFSET 0.037697 -18.950400 -13.496217
            CHANNELS 3 Zrotation Xrotation Yrotation
            JOINT HandLeft
            {
              OFFSET 1.856280 -4.932917 -2.756042
              CHANNELS 3 Zrotation Xrotation Yrotation
              JOINT HandTipLeft
              {
                OFFSET 0.254249 -5.697258 -3.649418
                CHANNELS 3 Zrotation Xrotation Yrotation
                End Site
                {
                  OFFSET 0 0 0
                }
              }
              JOINT ThumbLeft
              {
                OFFSET -3.794120 0.676691 -4.188439
                CHANNELS 3 Zrotation Xrotation Yrotation
                End Site
                {
                  OFFSET 0 0 0
                }
              }
            }
          }
        }
      }
      JOINT ShoulderRight
      {
        OFFSET 16.746242 -4.217443 -1.526472
        CHANNELS 3 Zrotation Xrotation Yrotation
        JOINT ElbowRight
        {
          OFFSET 4.289797 -27.560450 3.501286
          CHANNELS 3 Zrotation Xrotation Yrotation
          JOINT WristRight
          {
            OFFSET 1.660919 -22.165956 -4.354350
            CHANNELS 3 Zrotation Xrotation Yrotation
            JOINT HandRight
            {
              OFFSET -2.288652 -5.152248 -1.208472
              CHANNELS 3 Zrotation Xrotation Yrotation
              JOINT HandTipRight
              {
                OFFSET -0.715345 -7.849220 0.216802
                CHANNELS 3 Zrotation Xrotation Yrotation
                End Site
                {
                  OFFSET 0 0 0
                }
              }
              JOINT ThumbRight
              {
                OFFSET 2.780131 -1.383191 -1.839863
                CHANNELS 3 Zrotation Xrotation Yrotation
                End Site
                {
                  OFFSET 0 0 0
                }
              }
            }
          }
        }
      }
    }
  }
  JOINT HipLeft
  {
    OFFSET -7.661043 0.890533 -3.231540
    CHANNELS 3 Zrotation Xrotation Yrotation
    JOINT KneeLeft
    {
      OFFSET -1.968990 -34.915251 4.912367
      CHANNELS 3 Zrotation Xrotation Yrotation
      JOINT AnkleLeft
      {
        OFFSET 2.830653 -35.052173 8.399774
        CHANNELS 3 Zrotation Xrotation Yrotation
        JOINT FootLeft
        {
          OFFSET -3.440842 -5.559580 -8.563087
          CHANNELS 3 Zrotation Xrotation Yrotation
          End Site
          {
            OFFSET 0 0 0
          }
        }
      }
    }
  }
  JOINT HipRight
  {
    OFFSET 7.146721 0.592925 -3.973962
    CHANNELS 3 Zrotation Xrotation Yrotation
    JOINT KneeRight
    {
      OFFSET 0.309138 -34.203791 4.509740
      CHANNELS 3 Zrotation Xrotation Yrotation
      JOINT AnkleRight
      {
        OFFSET -5.921395 -34.604106 8.321632
        CHANNELS 3 Zrotation Xrotation Yrotation
        JOINT FootRight
        {
          OFFSET 5.842634 -6.411981 0.866672
          CHANNELS 3 Zrotation Xrotation Yrotation
          End Site
          {
            OFFSET 0 0 0
          }
        }
      }
    }
  }
}
MOTION
Frames: 10
Frame Time: 0.033333
11.269547 73.672368 301.171724 3.371977 -3.956220 -18.051390 -0.123554 0.084765 18.279653 -0.059958 -0.000021 0.139253 -22.628989 4.183497 -5.791279 0.000000 0.000000 0.000000 -15.124022 14.535125 -0.356395 84.458177 19.185350 -51.861881 146.322847 1.183046 119.152824 167.508350 -12.492409 119.760090 0.000000 0.000000 0.000000 0.000000 0.000000 0.000000 -7.968956 -2.053368 -1.592728 -26.856322 54.980374 26.746788 -60.653480 -54.781616 -47.011137 25.914746 43.240520 -17.690931 0.000000 0.000000 0.000000 0.000000 0.000000 0.000000 -22.467768 17.712904 18.658080 -7.232290 -10.739477 -4.302212 35.948141 6.926834 -25.984502 0.000000 0.000000 0.000000 5.339154 -4.266516 19.247390 4.068168 0.589989 2.989821 -46.778505 55.151093 72.885001 0.000000 0.000000 0.000000
9.293975 73.669733 299.220790 4.224122 -4.690826 -19.719876 -0.151638 0.055200 20.034808 -0.084039 -0.025632 0.175124 -23.643785 4.834817 -5.621291 0.000000 0.000000 0.000000 -11.219022 16.033229 -0.704721 88.584450 18.114488 -58.889652 143.482695 15.929707 150.186079 170.777599 -26.593692 149.037066 0.000000 0.000000 0.000000 0.000000 0.000000 0.000000 -9.266133 -0.483880 -1.428925 -28.510929 57.606951 29.127525 -67.010083 -60.288154 -55.559819 18.319602 41.766686 -15.950740 0.000000 0.000000 0.000000 0.000000 0.000000 0.000000 -22.378535 16.545877 20.322565 -7.179972 -11.016778 -4.182555 35.886218 5.403974 -27.531491 0.000000 0.000000 0.000000 4.803104 -2.741430 20.956451 3.938085 -1.609061 3.533672 -44.519180 55.572147 68.612861 0.000000 0.000000 0.000000
7.149736 73.710252 297.051377 4.966480 -5.477117 -21.499163 -0.166742 0.018354 21.905528 -0.136670 -0.020375 0.204620 -23.100483 5.053348 -5.142199 0.000000 0.000000 0.000000 -8.613931 17.068075 -1.003247 91.659294 16.578340 -63.962333 138.984353 20.323155 148.774139 164.445613 -30.598114 142.753344 0.000000 0.000000 0.000000 0.000000 0.000000 0.000000 -9.887110 0.261552 -1.355667 -31.149184 60.580597 32.184778 -73.023055 -63.147063 -63.028952 13.914141 39.841352 -14.672550 0.000000 0.000000 0.000000 0.000000 0.000000 0.000000 -21.992823 15.264718 22.106569 -7.013194 -11.298969 -3.996977 35.310463 6.199367 -29.809851 0.000000 0.000000 0.000000 3.947178 -1.063264 22.729028 3.427831 -3.262413 3.801829 -39.655033 55.319257 62.545996 0.000000 0.000000 0.000000
5.258273 74.071505 295.141611 5.461131 -6.146223 -22.385725 -0.122673 -0.071143 22.868889 -0.155987 -0.058833 0.227568 -21.788890 5.759557 -4.401741 0.000000 0.000000 0.000000 -5.594852 17.831163 -1.396508 90.377661 15.731093 -65.750627 134.888425 16.204414 127.514275 146.099307 -22.491646 114.843177 0.000000 0.000000 0.000000 0.000000 0.000000 0.000000 -10.182806 0.657150 -1.328641 -35.218750 63.527172 36.462777 -74.268714 -63.876334 -66.258295 12.546606 36.920207 -13.696902 0.000000 0.000000 0.000000 0.000000 0.000000 0.000000 -20.782464 14.259611 23.013155 -7.251937 -11.327712 -3.919846 34.613534 7.144340 -31.626151 0.000000 0.000000 0.000000 2.702201 0.760210 23.548514 2.693094 -4.765111 3.829791 -34.952369 54.315664 57.397993 0.000000 0.000000 0.000000
3.588292 74.447523 293.292105 6.048863 -6.860334 -25.406828 -0.143796 -0.125593 25.982701 -0.185498 -0.083279 0.252109 -20.013428 6.464570 -3.591859 0.000000 0.000000 0.000000 -4.308399 18.501729 -1.617947 90.176339 14.289167 -66.725726 123.250666 8.834300 99.711366 119.215805 20.280898 103.359861 0.000000 0.000000 0.000000 0.000000 0.000000 0.000000 -9.337825 0.187433 -1.391189 -38.609333 66.817735 39.596211 -76.274287 -62.286041 -67.768225 18.937600 31.419284 -15.922372 0.000000 0.000000 0.000000 0.000000 0.000000 0.000000 -20.240760 12.243187 25.981611 -7.661444 -10.356268 -3.785842 34.811217 7.099000 -33.685196 0.000000 0.000000 0.000000 0.966226 2.907973 26.530656 1.742237 -5.505195 3.497959 -28.437652 52.294412 51.255934 0.000000 0.000000 0.000000
2.341268 74.955914 291.857687 6.737366 -7.635373 -25.847351 -0.256790 -0.113120 26.534462 -0.181746 -0.115785 0.280364 -18.165917 7.141583 -2.817405 0.000000 0.000000 0.000000 -3.641639 19.638041 -1.860938 89.512259 14.343224 -66.957012 91.347390 2.121612 59.922044 12.607950 71.102281 -120.864230 0.000000 0.000000 0.000000 0.000000 0.000000 0.000000 -8.250620 -0.476265 -1.466636 -46.525630 68.830124 45.975687 -76.333720 -64.779438 -70.029592 15.224124 32.400281 -14.262890 0.000000 0.000000 0.000000 0.000000 0.000000 0.000000 -19.784369 11.673084 26.564514 -8.168658 -9.591106 -3.745811 35.511175 6.507680 -35.707207 0.000000 0.000000 0.000000 -1.676501 3.860132 26.970939 1.830380 -4.521264 2.881859 -21.959146 49.281354 45.975162 0.000000 0.000000 0.000000
1.276798 75.496885 290.583593 7.290394 -8.089895 -23.953884 -0.151100 -0.142124 24.729453 -0.174016 -0.134149 0.310569 -16.791492 7.597047 -2.248793 0.000000 0.000000 0.000000 -3.955370 19.148035 -1.763924 88.243724 13.809566 -66.770547 47.120210 8.528277 29.332427 -18.654680 24.365798 -43.425074 0.000000 0.000000 0.000000 0.000000 0.000000 0.000000 -7.274761 -1.290944 -1.548620 -51.538370 70.531131 49.919359 -77.617806 -66.944396 -71.943961 7.754756 37.058862 -11.041019 0.000000 0.000000 0.000000 0.000000 0.000000 0.000000 -18.836996 12.143799 24.857058 -9.054919 -9.185824 -3.899162 36.564325 5.791931 -37.623882 0.000000 0.000000 0.000000 -3.793810 3.476638 25.085447 2.456909 -1.658165 2.097659 -16.737916 45.956221 42.645943 0.000000 0.000000 0.000000
0.058222 76.066148 289.216365 7.634865 -8.395666 -20.494003 -0.036780 -0.237314 21.333464 -0.215484 -0.139943 0.329683 -15.194402 7.757171 -1.776006 0.000000 0.000000 0.000000 -3.046360 19.387997 -1.950168 86.774602 12.882593 -66.394908 10.480392 13.450445 22.592728 -51.494352 9.014537 -22.892233 0.000000 0.000000 0.000000 0.000000 0.000000 0.000000 -5.674513 -1.924011 -1.555122 -58.154769 70.901991 54.427345 -78.667895 -71.304766 -75.012226 -13.133366 51.801151 1.474756 0.000000 0.000000 0.000000 0.000000 0.000000 0.000000 -17.315586 13.511289 21.589599 -10.069406 -9.704640 -4.217128 37.510075 5.415416 -39.723322 0.000000 0.000000 0.000000 -5.354365 2.697642 21.614349 3.272201 2.104479 1.296321 -12.959477 43.010781 41.285544 0.000000 0.000000 0.000000
-0.871749 76.538965 288.221523 7.827410 -8.546886 -14.841568 0.032337 -0.378265 15.721879 -0.206721 -0.333659 0.352484 -14.068823 8.014363 -1.430045 0.000000 0.000000 0.000000 -1.946290 19.769424 -2.177128 86.988347 17.378761 -69.786422 -7.167411 5.384282 26.355304 -33.306527 -9.257639 -18.912278 0.000000 0.000000 0.000000 0.000000 0.000000 0.000000 -4.845583 -1.558329 -1.490614 -60.097796 70.824059 55.189224 -88.519076 -75.737988 -85.676261 -55.569369 61.765433 34.140679 0.000000 0.000000 0.000000 0.000000 0.000000 0.000000 -15.400674 15.855501 16.048821 -11.178936 -10.864964 -4.716708 38.508144 5.231032 -41.349571 0.000000 0.000000 0.000000 -6.565944 1.681623 15.935771 4.350534 6.573051 0.506113 -11.267815 40.782142 42.078722 0.000000 0.000000 0.000000
-1.618824 76.957947 287.509083 7.699998 -8.559568 -6.297273 0.203666 -0.773025 7.185023 -0.302927 -0.338433 0.354583 -12.554386 8.171562 -1.100677 0.000000 0.000000 0.000000 -0.786242 19.809444 -2.330053 84.721284 15.857889 -68.414485 -18.997948 6.415223 24.371443 -30.426650 -24.352701 -16.982363 0.000000 0.000000 0.000000 0.000000 0.000000 0.000000 -1.953261 -4.657855 -1.701742 -68.967192 71.270666 61.592297 -98.634952 -77.511169 -94.999078 -83.569636 62.773070 59.018801 0.000000 0.000000 0.000000 0.000000 0.000000 0.000000 -13.276728 19.566699 7.422507 -10.362981 -14.043870 -4.936882 38.924912 8.064060 -44.419006 0.000000 0.000000 0.000000 -7.193818 1.022562 7.359101 5.544443 10.748351 -0.150188 -11.315052 41.780658 46.446884 0.000000 0.000000 0.000000
